<svg xmlns="http://www.w3.org/2000/svg" width="39" height="113" viewBox="0 0 39 113">
  <g id="testtube" transform="translate(-287.367 172.5)">
    <path id="fill" d="M0,0H35a0,0,0,0,1,0,0V29.5A17.5,17.5,0,0,1,17.5,47h0A17.5,17.5,0,0,1,0,29.5V0A0,0,0,0,1,0,0Z" transform="translate(288.867 -109)" fill="#f93881"/>
    <path id="outline" d="M0,0H36a0,0,0,0,1,0,0V92a18,18,0,0,1-18,18h0A18,18,0,0,1,0,92V0A0,0,0,0,1,0,0Z" transform="translate(288.867 -171)" fill="none" stroke="#000" stroke-width="3"/>
    <rect id="stripe" width="36" height="33" transform="translate(288.867 -139)"/>
    <text id="label" transform="translate(306.867 -118)" fill="#fff" font-size="14" font-family="PTSans-Bold, PT Sans" font-weight="700"><tspan x="-16.968" y="0">XXXX</tspan></text>
  </g>
</svg>
