<svg xmlns="http://www.w3.org/2000/svg" width="40" height="122" viewBox="0 0 40 122">
  <g id="TestTube" transform="translate(-1381 -208)">
    <path id="contents" d="M0,0H40a0,0,0,0,1,0,0V43A20,20,0,0,1,20,63h0A20,20,0,0,1,0,43V0A0,0,0,0,1,0,0Z" stroke="none"/>
    <path id="bottom" transform="translate(1381 267)" stroke="#000" stroke-width="3"  d="M3,1.5H37A1.5,1.5,0,0,1,38.5,3V43A18.5,18.5,0,0,1,20,61.5h0A18.5,18.5,0,0,1,1.5,43V3A1.5,1.5,0,0,1,3,1.5Z" fill="none"/>
    <rect id="top" x="1.5" y="1.5" width="37" height="31" transform="translate(1381 208)" fill="none" stroke="#000" stroke-width="3"/>
    <rect id="label" width="40" height="33" transform="translate(1381 239)" stroke="#000" stroke-width="3"/>
  </g>
</svg>
